# xmcd
#
# Track frame offsets:
#	182
#	14857
#	41625
#	52980
#	75307
#	91072
#	105925
#	121140
#	140457
#	170035
#	208257
#	235032
#	255850
#	278955
#
# Disc length: 4045 seconds
#
# Revision: 4
# Processed by: cddbd v1.4PL0 Copyright (c) Steve Scherf et al.
# Submitted via: audiograbber 1.81.03
#
DISCID=b20fcb0e
DTITLE=Various Artist - Blues Town - Vol 3
DYEAR=1997
DGENRE=Blues
TTITLE0=Gary Primich - Slap Your Silly
TTITLE1=Mike Henderson and The Bluebloods - When I Get Drunk
TTITLE2=Mambo Chillum - Get Away
TTITLE3=Marc Benno - Hotfoot Blues
TTITLE4=Dave Mc Kenzie - My Girlfriend's Blues
TTITLE5=The Radio Kings - Love Comes Easy (Love Comes Hard)
TTITLE6=Cold Blue Steel - Shufflin' Little Lady
TTITLE7=The Rhythm Lords - Voodoo Queen
TTITLE8=Joe Beard - Feets Out In The Hall
TTITLE9=Paul Black and The Flip Kings - Murder My Baby
TTITLE10=Johnny V's Blues Allstars - I Ain't Gonna Dust My Broom Again
TTITLE11=Paul "Wine" Jones - Coal Black Mare
TTITLE12=Henry Qualls - Shotgun Blues
TTITLE13=J.C. Rico - Blues Feels Good
EXTD=
EXTT0=
EXTT1=
EXTT2=
EXTT3=
EXTT4=
EXTT5=
EXTT6=
EXTT7=
EXTT8=
EXTT9=
EXTT10=
EXTT11=
EXTT12=
EXTT13=
PLAYORDER=
